<?xml version="1.0" encoding="utf-8"?>
<!-- Generator: Adobe Illustrator 16.0.0, SVG Export Plug-In . SVG Version: 6.00 Build 0)  -->
<!DOCTYPE svg PUBLIC "-//W3C//DTD SVG 1.1//EN" "http://www.w3.org/Graphics/SVG/1.1/DTD/svg11.dtd">
<svg version="1.1" id="Layer_1" xmlns="http://www.w3.org/2000/svg" xmlns:xlink="http://www.w3.org/1999/xlink" x="0px" y="0px"
	 width="2066px" height="2066px" viewBox="0 0 2066 2066" enable-background="new 0 0 2066 2066" xml:space="preserve">
<g opacity="0.6">
	<defs>
		<rect id="SVGID_1_" opacity="0.6" width="2066" height="2066"/>
	</defs>
	<clipPath id="SVGID_2_">
		<use xlink:href="#SVGID_1_"  overflow="visible"/>
	</clipPath>
	<radialGradient id="SVGID_3_" cx="1045.3965" cy="1491.6533" r="1569.8882" gradientUnits="userSpaceOnUse">
		<stop  offset="0" style="stop-color:#FFFFFF"/>
		<stop  offset="0.1172" style="stop-color:#FFFFFF;stop-opacity:0.8828"/>
		<stop  offset="1" style="stop-color:#FFFFFF;stop-opacity:0"/>
	</radialGradient>
	<path clip-path="url(#SVGID_2_)" fill="url(#SVGID_3_)" d="M-172.727,719.569l595.504-343.626l109.29,63.098L430.14,497.857
		l-44.659-25.785l-1.033,1.788l43.628,25.188l-546.047,315.089l1.033,1.788L430.14,500.24l109.288,63.1l-101.926,58.814
		l-52.021-30.034l-1.033,1.788l50.988,29.438L-62.184,910.491l1.033,1.788L437.5,624.539l109.291,63.098l-101.928,58.814
		l-59.381-34.282l-1.033,1.787l58.349,33.688l-449.194,259.2l1.033,1.792l450.229-259.797l109.288,63.098L452.224,870.75
		l-66.744-38.534l-1.033,1.788l65.711,37.938L49.39,1103.199l1.033,1.792l401.803-231.856l109.286,63.098l-101.926,58.816
		l-74.105-42.785l-1.033,1.792l73.069,42.184l-352.34,203.315l1.033,1.792l353.375-203.913l109.286,63.098l-101.924,58.812
		l-81.466-47.033l-1.033,1.791l80.431,46.438l-303.914,175.367l1.033,1.792l304.949-175.965l109.288,63.098l-101.928,58.813
		l-88.826-51.283l-1.033,1.792l87.791,50.686l-255.486,147.424l1.033,1.792l256.521-148.021l109.286,63.098l-101.922,58.813
		l-96.19-55.536l-1.033,1.792l95.155,54.938l-207.064,119.48l1.033,1.792l208.097-120.078l109.288,63.094l-101.926,58.816
		l-103.55-59.785l-1.033,1.792l102.515,59.188l-158.636,91.537l1.033,1.792l55.679-32.128l109.286,63.094l-101.926,58.816
		l-6.918-3.995l-1.033,1.792l5.883,3.397l-6.218,3.587l1.033,1.792l7.253-4.185l109.284,63.094l-61.783,35.65l1.033,1.792
		l62.817-36.248l109.288,63.098l-101.922,58.813l-125.637-72.536l-1.033,1.792l124.6,71.938l-13.358,7.707l1.033,1.792l14.394-8.305
		l109.286,63.094l-68.927,39.774l1.033,1.792l69.961-40.372l109.288,63.098l-101.926,58.816L385.48,1912.647l-1.033,1.792
		l243.316,140.48L608.556,2066h4.138l17.138-9.891l17.127,9.891h4.136l-19.195-11.08l101.926-58.817l109.286,63.099L831.325,2066
		h4.138l9.717-5.604l9.71,5.604h4.136l-11.779-6.799l101.924-58.813L1062.819,2066h4.137l-115.716-66.807l101.924-58.816
		L1270.747,2066h4.137l-219.65-126.816l101.924-58.813L1478.679,2066h4.136l-323.591-186.824l101.928-58.816L1686.61,2066h4.136
		l-427.524-246.83l101.92-58.816L1894.538,2066h4.136l-531.462-306.838l101.924-58.816L2102.47,2066h4.136l-635.399-366.849
		l101.924-58.812l648.345,374.32l1.033-1.791l-647.313-373.725l101.929-58.816l544.351,314.282l1.033-1.791l-543.318-313.681
		l101.925-58.817l440.36,254.243l1.033-1.791l-439.324-253.643l101.924-58.816l336.367,194.2l1.033-1.791l-335.33-193.604
		l101.924-58.812l232.373,134.16l1.033-1.791l-231.34-133.564l11.799-6.807l-1.033-1.792l-12.832,7.404l-109.283-63.094
		l67.362-38.87l-1.033-1.792l-68.399,39.468l-109.284-63.094l101.924-58.816l351.087,202.698l1.033-1.792l-350.05-202.101
		l18.937-10.927l-1.033-1.792l-19.974,11.524l-109.288-63.098l74.505-42.99l-1.033-1.792l-75.538,43.588l-109.288-63.094
		l101.924-58.816l469.806,271.243l1.033-1.791l-468.769-270.646l26.079-15.047l-1.033-1.792l-27.116,15.645l-109.288-63.094
		l81.651-47.114l-1.032-1.788l-82.681,47.708l-109.292-63.096l101.928-58.816l588.52,339.782l1.033-1.792l-587.486-339.183
		l33.221-19.171l-1.033-1.788l-34.254,19.767l-109.288-63.098l88.789-51.237l-1.032-1.788l-89.823,51.832l-109.288-63.098
		l101.924-58.814l707.238,408.324l1.033-1.792l-706.201-407.724l40.363-23.293l-1.032-1.787l-41.396,23.888l-109.293-63.098
		l95.937-55.358l-1.033-1.788l-96.965,55.954l-109.292-63.098l101.928-58.816l825.952,476.863l1.033-1.792l-824.919-476.263
		l47.506-27.413l-1.033-1.788l-48.535,28.008l-109.292-63.1l101.928-58.814l833.313,481.111l1.033-1.788l-834.119-481.578
		l-0.113-0.196l-0.113,0.065l-109.288-63.098l54.648-31.535l-1.033-1.788l-55.681,32.13l-109.293-63.098l110.217-63.598
		l-1.033-1.788l-111.245,64.193l-109.288-63.098l165.78-95.664l-1.033-1.788L1054.1,137.811L944.812,74.713L1166.16-53.014
		l-1.033-1.788L942.746,73.521L385.48-248.217l-1.033,1.788L940.682,74.713l-101.928,58.814L385.48-128.169l-1.033,1.788
		l452.24,261.101l-101.93,58.816L385.48-8.119l-1.033,1.788l348.244,201.06l-101.926,58.814L385.48,111.929l-1.033,1.788
		L628.7,254.735l-101.928,58.816L385.48,231.977l-1.033,1.788l140.258,80.979l-101.928,58.814l-37.297-21.534l-1.033,1.788
		l36.266,20.938L-173.76,717.782L-172.727,719.569z M432.206,499.05l101.926-58.816l109.291,63.098l-101.928,58.816L432.206,499.05z
		 M875.558,757.403L984.844,820.5l-101.926,58.814l-109.286-63.096L875.558,757.403z M875.558,755.018L766.27,691.92l101.926-58.814
		l109.288,63.096L875.558,755.018z M1008.997,1194.588l109.29,63.098l-101.928,58.816l-109.288-63.098L1008.997,1194.588z
		 M1008.997,1192.203l-109.289-63.098l101.926-58.816l109.288,63.098L1008.997,1192.203z M1125.644,1381.984l-101.924,58.813
		l-109.284-63.094l101.922-58.816L1125.644,1381.984z M1018.425,1317.696l101.929-58.816l109.283,63.094l-101.928,58.816
		L1018.425,1317.696z M1122.419,1257.686l101.924-58.813l109.288,63.094l-101.928,58.816L1122.419,1257.686z M1120.354,1256.491
		l-109.291-63.094l101.926-58.816l109.288,63.098L1120.354,1256.491z M1003.701,1069.099l101.928-58.816l109.288,63.098
		l-101.928,58.816L1003.701,1069.099z M1001.635,1067.904l-109.288-63.094l101.928-58.816l109.288,63.094L1001.635,1067.904z
		 M994.274,943.605l-109.288-63.096l101.926-58.816l109.286,63.1L994.274,943.605z M882.918,881.702l109.29,63.098l-101.928,58.816
		l-109.288-63.102L882.918,881.702z M890.28,1006.001l109.287,63.098l-101.926,58.813l-109.286-63.098L890.28,1006.001z
		 M897.643,1130.296l109.288,63.098l-101.928,58.816l-109.288-63.098L897.643,1130.296z M1014.291,1317.696l-101.924,58.813
		l-109.289-63.098l101.922-58.813L1014.291,1317.696z M1021.651,1441.991l-101.926,58.813l-109.286-63.094l101.926-58.816
		L1021.651,1441.991z M1029.013,1566.29l-101.926,58.813l-109.286-63.098l101.922-58.813L1029.013,1566.29z M921.793,1501.998
		l101.926-58.813l109.288,63.094l-101.928,58.816L921.793,1501.998z M1025.787,1441.991l101.922-58.813l109.288,63.094
		l-101.924,58.816L1025.787,1441.991z M1129.779,1381.984l101.928-58.816l109.284,63.098l-101.924,58.816L1129.779,1381.984z
		 M1233.773,1321.978l101.924-58.816l109.288,63.098l-101.924,58.813L1233.773,1321.978z M1335.697,1260.776l-109.284-63.098
		l101.924-58.816l109.288,63.098L1335.697,1260.776z M1224.343,1196.484l-109.288-63.098l101.928-58.816l109.289,63.102
		L1224.343,1196.484z M1107.694,1009.088l101.925-58.817l109.288,63.102l-101.925,58.813L1107.694,1009.088z M1105.629,1007.897
		l-109.288-63.098l101.924-58.814l109.288,63.096L1105.629,1007.897z M988.979,820.5l101.926-58.814l109.288,63.098l-101.924,58.814
		L988.979,820.5z M986.913,819.308L877.624,756.21l101.926-58.814l109.289,63.098L986.913,819.308z M870.262,631.914l101.928-58.816
		l109.289,63.098l-101.926,58.816L870.262,631.914z M862.9,507.615l101.928-58.817l109.29,63.1L972.19,570.712L862.9,507.615z
		 M970.124,571.905l-101.928,58.814l-109.289-63.098l101.926-58.814L970.124,571.905z M866.13,631.912l-101.928,58.816
		L654.914,627.63l101.928-58.816L866.13,631.912z M764.204,693.113l109.288,63.098l-101.928,58.814l-109.289-63.096L764.204,693.113
		z M771.566,817.412l109.286,63.096l-101.928,58.816l-109.286-63.098L771.566,817.412z M778.926,941.708l109.288,63.098
		l-101.928,58.816l-109.288-63.098L778.926,941.708z M786.289,1066.008l109.286,63.098l-101.928,58.813l-109.286-63.094
		L786.289,1066.008z M902.935,1253.404l-101.924,58.813l-109.286-63.098l101.922-58.813L902.935,1253.404z M910.299,1377.703
		l-101.926,58.813l-109.288-63.098l101.926-58.813L910.299,1377.703z M917.655,1501.998l-101.922,58.813l-109.284-63.094
		l101.922-58.813L917.655,1501.998z M925.019,1626.297l-101.926,58.813l-109.286-63.094l101.926-58.816L925.019,1626.297z
		 M932.379,1750.596l-101.924,58.813l-109.286-63.098l101.924-58.813L932.379,1750.596z M825.161,1686.304l101.926-58.813
		l109.286,63.098l-101.924,58.813L825.161,1686.304z M929.157,1626.297l101.922-58.813l109.288,63.098l-101.924,58.813
		L929.157,1626.297z M1033.146,1566.29l101.928-58.816l109.288,63.098l-101.928,58.816L1033.146,1566.29z M1137.144,1506.283
		l101.92-58.816l109.288,63.098l-101.92,58.813L1137.144,1506.283z M1241.133,1446.276l101.929-58.816l109.288,63.098
		l-101.928,58.813L1241.133,1446.276z M1345.127,1386.266l101.925-58.813l109.288,63.098l-101.924,58.813L1345.127,1386.266z
		 M1449.121,1326.259l101.924-58.816l109.289,63.098l-101.925,58.816L1449.121,1326.259z M1447.052,1325.064l-109.288-63.094
		l101.928-58.816l109.288,63.094L1447.052,1325.064z M1439.691,1200.766l-109.284-63.094l101.924-58.816l109.284,63.098
		L1439.691,1200.766z M1328.341,1136.478l-109.292-63.098l101.924-58.813l109.293,63.098L1328.341,1136.478z M1211.685,949.085
		l101.929-58.818l109.288,63.096l-101.925,58.816L1211.685,949.085z M1209.619,947.891l-109.284-63.098l101.924-58.816
		l109.288,63.098L1209.619,947.891z M1092.971,760.494l101.928-58.814l109.288,63.098l-101.928,58.814L1092.971,760.494z
		 M1090.904,759.301l-109.286-63.098l101.926-58.814l109.288,63.098L1090.904,759.301z M974.256,571.905l101.928-58.814
		l109.288,63.098l-101.929,58.814L974.256,571.905z M966.894,447.608l101.926-58.816l109.288,63.098l-101.924,58.816
		L966.894,447.608z M964.828,446.413l-109.291-63.098l101.928-58.814l109.288,63.098L964.828,446.413z M962.762,447.605
		l-101.928,58.817l-109.288-63.098l101.926-58.816L962.762,447.605z M858.768,507.615l-101.926,58.814l-109.29-63.098
		l101.928-58.814L858.768,507.615z M754.776,567.621l-101.928,58.817L543.56,563.34l101.926-58.816L754.776,567.621z
		 M652.848,628.823l109.291,63.098L660.21,750.735l-109.288-63.098L652.848,628.823z M660.212,753.122l109.286,63.096
		l-101.926,58.816l-109.288-63.098L660.212,753.122z M667.572,877.418l109.286,63.096l-101.926,58.816l-109.286-63.094
		L667.572,877.418z M674.932,1001.715l109.289,63.098l-101.926,58.816l-109.288-63.098L674.932,1001.715z M791.579,1189.112
		l-101.922,58.813l-109.286-63.094l101.922-58.813L791.579,1189.112z M798.943,1313.411l-101.926,58.816l-109.288-63.098
		l101.926-58.816L798.943,1313.411z M806.303,1437.71l-101.922,58.813l-109.288-63.098l101.924-58.813L806.303,1437.71z
		 M813.665,1562.005l-101.928,58.816l-109.284-63.098l101.926-58.813L813.665,1562.005z M709.669,1622.016l-101.922,58.813
		l-109.284-63.094l101.922-58.816L709.669,1622.016z M711.737,1623.206l109.289,63.098l-101.924,58.813l-109.286-63.094
		L711.737,1623.206z M828.387,1810.603l-101.926,58.816l-109.286-63.098l101.926-58.816L828.387,1810.603z M830.455,1811.797
		l109.289,63.098l-101.926,58.813l-109.286-63.098L830.455,1811.797z M832.525,1810.603l101.924-58.813l109.284,63.099
		L941.812,1873.7L832.525,1810.603z M936.518,1750.596l101.926-58.816l109.288,63.098l-101.928,58.816L936.518,1750.596z
		 M1040.514,1690.589l101.92-58.813l109.288,63.094l-101.924,58.813L1040.514,1690.589z M1144.504,1630.582l101.928-58.816
		l109.284,63.098l-101.924,58.813L1144.504,1630.582z M1248.497,1570.571l101.925-58.813l109.288,63.098l-101.925,58.813
		L1248.497,1570.571z M1352.491,1510.564l101.925-58.813l109.288,63.094l-101.929,58.816L1352.491,1510.564z M1456.485,1450.558
		l101.924-58.813l109.284,63.094l-101.924,58.816L1456.485,1450.558z M1560.476,1390.551l101.928-58.816l109.284,63.098
		l-101.924,58.816L1560.476,1390.551z M1662.403,1329.35l-109.288-63.098l101.924-58.816l109.289,63.098L1662.403,1329.35z
		 M1551.045,1265.058l-109.283-63.098l101.924-58.813l109.284,63.094L1551.045,1265.058z M1543.682,1140.759l-109.284-63.094
		l101.928-58.816l109.284,63.094L1543.682,1140.759z M1432.331,1076.471l-109.288-63.098l101.924-58.816l109.292,63.098
		L1432.331,1076.471z M1315.679,889.074l101.928-58.814l109.288,63.098l-101.924,58.814L1315.679,889.074z M1313.613,887.882
		l-109.289-63.098l101.929-58.814l109.288,63.098L1313.613,887.882z M1196.965,700.487l101.928-58.816l109.288,63.098
		l-101.928,58.816L1196.965,700.487z M1194.898,699.292l-109.288-63.098l101.928-58.814l109.288,63.098L1194.898,699.292z
		 M1078.25,511.898l101.924-58.814l109.289,63.098l-101.925,58.814L1078.25,511.898z M1070.886,387.599l101.929-58.817l109.288,63.1
		l-101.929,58.814L1070.886,387.599z M1068.82,386.407l-109.289-63.098l101.928-58.816l109.288,63.098L1068.82,386.407z
		 M957.466,322.116l-109.288-63.098l101.928-58.816l109.288,63.098L957.466,322.116z M955.4,323.309l-101.926,58.814l-109.29-63.098
		l101.928-58.814L955.4,323.309z M851.408,383.315L749.48,442.132l-109.291-63.098l101.928-58.816L851.408,383.315z
		 M747.414,443.324l-101.926,58.814l-109.29-63.098l101.928-58.814L747.414,443.324z M439.565,623.347l101.928-58.816l109.288,63.1
		l-101.928,58.814L439.565,623.347z M446.928,747.646l101.928-58.816l109.288,63.098l-101.928,58.816L446.928,747.646z
		 M454.29,871.945l101.928-58.816l109.289,63.098l-101.928,58.816L454.29,871.945z M461.652,996.24l101.928-58.813l109.286,63.098
		l-101.928,58.813L461.652,996.24z M469.014,1120.539l101.922-58.813l109.289,63.098l-101.922,58.813L469.014,1120.539z
		 M476.375,1244.838l101.926-58.813l109.288,63.094l-101.928,58.816L476.375,1244.838z M483.739,1369.137l101.922-58.816
		l109.288,63.098l-101.922,58.816L483.739,1369.137z M593.025,1434.619l109.288,63.098l-101.928,58.816l-109.286-63.098
		L593.025,1434.619z M387.108,1553.442l101.922-58.813l109.286,63.094l-101.922,58.816L387.108,1553.442z M394.469,1677.741
		l101.924-58.816l109.284,63.098l-101.926,58.813L394.469,1677.741z M505.819,1742.029l101.926-58.813l109.288,63.094
		l-101.926,58.816L505.819,1742.029z M513.183,1866.328l101.924-58.813l109.286,63.094l-101.924,58.816L513.183,1866.328z
		 M624.539,1930.616l101.922-58.813l109.288,63.098l-101.924,58.813L624.539,1930.616z M845.18,2058.006l-109.286-63.098
		l101.924-58.813l109.286,63.098L845.18,2058.006z M949.171,1998l-109.286-63.099l101.926-58.812l109.286,63.094L949.171,1998z
		 M1053.164,1937.988l-109.285-63.094l101.924-58.813l109.284,63.094L1053.164,1937.988z M1157.157,1877.981l-109.284-63.093
		l101.925-58.817l109.284,63.099L1157.157,1877.981z M1261.151,1817.975l-109.284-63.098l101.925-58.813l109.284,63.098
		L1261.151,1817.975z M1365.142,1757.969l-109.284-63.099l101.928-58.812l109.284,63.093L1365.142,1757.969z M1469.14,1697.957
		l-109.284-63.094l101.92-58.813l109.284,63.094L1469.14,1697.957z M1573.13,1637.95l-109.284-63.094l101.928-58.816l109.28,63.094
		L1573.13,1637.95z M1677.124,1577.943l-109.284-63.094l101.924-58.816l109.284,63.094L1677.124,1577.943z M1781.114,1517.937
		l-109.284-63.093l101.928-58.817l109.284,63.094L1781.114,1517.937z M1877.748,1336.02l109.284,63.094l-101.925,58.813
		l-109.283-63.094L1877.748,1336.02z M1875.682,1334.825l-101.924,58.813l-109.288-63.094l101.924-58.816L1875.682,1334.825z
		 M1759.033,1147.429l109.288,63.098l-101.928,58.816l-109.288-63.098L1759.033,1147.429z M1756.964,1146.234l-101.925,58.816
		l-109.288-63.098l101.929-58.816L1756.964,1146.234z M1749.604,1021.936l-101.924,58.816l-109.288-63.098l101.924-58.813
		L1749.604,1021.936z M1638.249,957.647l-101.924,58.816l-109.292-63.102l101.928-58.813L1638.249,957.647z M1630.889,833.349
		l-101.928,58.816l-109.288-63.098l101.924-58.816L1630.889,833.349z M1519.535,769.059l-101.929,58.814l-109.288-63.096
		l101.929-58.816L1519.535,769.059z M1512.175,644.761l-101.928,58.814l-109.288-63.098l101.924-58.814L1512.175,644.761z
		 M1400.816,580.471l-101.924,58.814l-109.288-63.098l101.924-58.816L1400.816,580.471z M1393.456,456.172l-101.924,58.814
		l-109.292-63.098l101.928-58.814L1393.456,456.172z M1386.097,331.874l-101.925,58.816l-109.292-63.1l101.929-58.814
		L1386.097,331.874z M1274.742,267.583l-101.928,58.814L1063.526,263.3l101.928-58.816L1274.742,267.583z M1163.388,203.293
		l-101.928,58.814L952.172,199.01l101.928-58.816L1163.388,203.293z M942.746,75.905l109.289,63.096l-101.928,58.816L840.817,134.72
		L942.746,75.905z M838.751,135.912L948.04,199.01l-101.928,58.816l-109.288-63.098L838.751,135.912z M734.757,195.921
		l109.289,63.098L742.12,317.833l-109.29-63.098L734.757,195.921z M630.764,255.928l109.29,63.098l-101.928,58.816l-109.29-63.098
		L630.764,255.928z M526.771,315.937l109.288,63.098l-101.926,58.814l-109.291-63.098L526.771,315.937z"/>
</g>
</svg>
